<mxfile host="app.diagrams.net" modified="2022-07-04T05:50:12.747Z" agent="5.0 (Macintosh; Intel Mac OS X 10_15_7) AppleWebKit/537.36 (KHTML, like Gecko) Chrome/103.0.0.0 Safari/537.36" etag="qxJAEvwOk68TaDyc84Oq" version="20.0.4" type="github">
  <diagram id="xFMTAUmhkkEY8uQl3muQ" name="Page-1">
    <mxGraphModel dx="1234" dy="745" grid="1" gridSize="10" guides="1" tooltips="1" connect="1" arrows="1" fold="1" page="1" pageScale="1" pageWidth="850" pageHeight="1100" math="0" shadow="0">
      <root>
        <mxCell id="0" />
        <mxCell id="1" parent="0" />
        <mxCell id="1I16HpEK6TIGJammznLg-13" value="" style="rounded=0;whiteSpace=wrap;html=1;" vertex="1" parent="1">
          <mxGeometry x="90" y="50" width="550" height="270" as="geometry" />
        </mxCell>
        <mxCell id="1I16HpEK6TIGJammznLg-1" value="User" style="shape=umlActor;verticalLabelPosition=bottom;verticalAlign=top;html=1;outlineConnect=0;" vertex="1" parent="1">
          <mxGeometry x="100" y="60" width="20" height="40" as="geometry" />
        </mxCell>
        <mxCell id="1I16HpEK6TIGJammznLg-15" value="Customer Tenant" style="text;html=1;strokeColor=none;fillColor=none;align=center;verticalAlign=middle;whiteSpace=wrap;rounded=0;" vertex="1" parent="1">
          <mxGeometry x="490" y="50" width="120" height="30" as="geometry" />
        </mxCell>
        <mxCell id="1I16HpEK6TIGJammznLg-32" value="" style="group" vertex="1" connectable="0" parent="1">
          <mxGeometry x="290" y="100" width="220" height="190" as="geometry" />
        </mxCell>
        <mxCell id="1I16HpEK6TIGJammznLg-25" value="" style="rounded=0;whiteSpace=wrap;html=1;fontSize=10;" vertex="1" parent="1I16HpEK6TIGJammznLg-32">
          <mxGeometry width="200" height="190" as="geometry" />
        </mxCell>
        <mxCell id="1I16HpEK6TIGJammznLg-11" value="" style="rounded=0;whiteSpace=wrap;html=1;" vertex="1" parent="1I16HpEK6TIGJammznLg-32">
          <mxGeometry x="10" y="25" width="160" height="75" as="geometry" />
        </mxCell>
        <mxCell id="1I16HpEK6TIGJammznLg-12" value="H2H UI" style="rounded=1;whiteSpace=wrap;html=1;" vertex="1" parent="1I16HpEK6TIGJammznLg-32">
          <mxGeometry x="20" y="40" width="120" height="30" as="geometry" />
        </mxCell>
        <mxCell id="1I16HpEK6TIGJammznLg-14" value="Fiori LaunchPad" style="text;html=1;strokeColor=none;fillColor=none;align=center;verticalAlign=middle;whiteSpace=wrap;rounded=0;" vertex="1" parent="1I16HpEK6TIGJammznLg-32">
          <mxGeometry x="30" width="120" height="30" as="geometry" />
        </mxCell>
        <mxCell id="1I16HpEK6TIGJammznLg-16" value="H2H Config UI" style="rounded=1;whiteSpace=wrap;html=1;" vertex="1" parent="1I16HpEK6TIGJammznLg-32">
          <mxGeometry x="30" y="110" width="120" height="30" as="geometry" />
        </mxCell>
        <mxCell id="1I16HpEK6TIGJammznLg-17" value="&lt;font style=&quot;font-size: 10px;&quot;&gt;FLP Plugin&amp;nbsp;&lt;/font&gt;" style="text;html=1;strokeColor=none;fillColor=none;align=center;verticalAlign=middle;whiteSpace=wrap;rounded=0;" vertex="1" parent="1I16HpEK6TIGJammznLg-32">
          <mxGeometry x="30" y="70" width="120" height="30" as="geometry" />
        </mxCell>
        <mxCell id="1I16HpEK6TIGJammznLg-18" value="&lt;font style=&quot;font-size: 10px;&quot;&gt;IFrame&lt;/font&gt;" style="text;html=1;strokeColor=none;fillColor=none;align=center;verticalAlign=middle;whiteSpace=wrap;rounded=0;" vertex="1" parent="1I16HpEK6TIGJammznLg-32">
          <mxGeometry x="60" y="60" width="120" height="30" as="geometry" />
        </mxCell>
        <mxCell id="1I16HpEK6TIGJammznLg-28" value="FLP Notification Service" style="rounded=1;whiteSpace=wrap;html=1;" vertex="1" parent="1I16HpEK6TIGJammznLg-32">
          <mxGeometry x="20" y="150" width="160" height="30" as="geometry" />
        </mxCell>
        <mxCell id="1I16HpEK6TIGJammznLg-21" value="" style="edgeStyle=orthogonalEdgeStyle;rounded=0;orthogonalLoop=1;jettySize=auto;html=1;fontSize=10;" edge="1" parent="1I16HpEK6TIGJammznLg-32" source="1I16HpEK6TIGJammznLg-11">
          <mxGeometry relative="1" as="geometry">
            <mxPoint x="220" y="62.5" as="targetPoint" />
          </mxGeometry>
        </mxCell>
        <mxCell id="1I16HpEK6TIGJammznLg-38" value="" style="edgeStyle=orthogonalEdgeStyle;rounded=0;orthogonalLoop=1;jettySize=auto;html=1;fontSize=10;" edge="1" parent="1" source="1I16HpEK6TIGJammznLg-33" target="1I16HpEK6TIGJammznLg-34">
          <mxGeometry relative="1" as="geometry" />
        </mxCell>
        <mxCell id="1I16HpEK6TIGJammznLg-33" value="App Router" style="rounded=1;whiteSpace=wrap;html=1;fontSize=10;" vertex="1" parent="1">
          <mxGeometry x="130" y="110" width="120" height="60" as="geometry" />
        </mxCell>
        <mxCell id="1I16HpEK6TIGJammznLg-34" value="XSUA" style="rounded=1;whiteSpace=wrap;html=1;fontSize=10;" vertex="1" parent="1">
          <mxGeometry x="130" y="230" width="120" height="60" as="geometry" />
        </mxCell>
      </root>
    </mxGraphModel>
  </diagram>
</mxfile>
